<svg viewBox="0 0 24 24" fill="none" xmlns="http://www.w3.org/2000/svg">
<path d="M7 15V7H5L4 9H5V15H4V17H8V15H7Z" fill="#8C9BA5"/>
<path fill-rule="evenodd" clip-rule="evenodd" d="M18 7H16C15.4696 7 14.9609 7.21071 14.5858 7.58579C14.2107 7.96086 14 8.46957 14 9V15C14 15.5304 14.2107 16.0391 14.5858 16.4142C14.9609 16.7893 15.4696 17 16 17H18C18.5304 17 19.0391 16.7893 19.4142 16.4142C19.7893 16.0391 20 15.5304 20 15V9C20 8.46957 19.7893 7.96086 19.4142 7.58579C19.0391 7.21071 18.5304 7 18 7ZM16 15V9H18V15H16Z" fill="#8C9BA5"/>
<path d="M10.2929 16.7071C10.4804 16.8946 10.7348 17 11 17C11.2652 17 11.5196 16.8946 11.7071 16.7071C11.8946 16.5196 12 16.2652 12 16C12 15.7348 11.8946 15.4804 11.7071 15.2929C11.5196 15.1054 11.2652 15 11 15C10.7348 15 10.4804 15.1054 10.2929 15.2929C10.1054 15.4804 10 15.7348 10 16C10 16.2652 10.1054 16.5196 10.2929 16.7071Z" fill="#8C9BA5"/>
</svg>
