<svg viewBox="0 0 24 24" fill="none" xmlns="http://www.w3.org/2000/svg">
<path d="M17 7H19C19.5304 7 20.0391 7.21071 20.4142 7.58579C20.7893 7.96086 21 8.46957 21 9V15C21 15.5304 20.7893 16.0391 20.4142 16.4142C20.0391 16.7893 19.5304 17 19 17H17C16.4696 17 15.9609 16.7893 15.5858 16.4142C15.2107 16.0391 15 15.5304 15 15V9C15 8.46957 15.2107 7.96086 15.5858 7.58579C15.9609 7.21071 16.4696 7 17 7ZM17 9V15H19V9H17ZM9 17H3V15L7 9H3V7H7C7.53043 7 8.03914 7.21071 8.41421 7.58579C8.78929 7.96086 9 8.46957 9 9C9 9.42 8.87 9.81 8.65 10.13L5.41 15H9V17ZM12 17C11.7348 17 11.4804 16.8946 11.2929 16.7071C11.1054 16.5196 11 16.2652 11 16C11 15.7348 11.1054 15.4804 11.2929 15.2929C11.4804 15.1054 11.7348 15 12 15C12.2652 15 12.5196 15.1054 12.7071 15.2929C12.8946 15.4804 13 15.7348 13 16C13 16.2652 12.8946 16.5196 12.7071 16.7071C12.5196 16.8946 12.2652 17 12 17Z" fill="#8C9BA5"/>
</svg>
