<svg viewBox="0 0 24 24" fill="none" xmlns="http://www.w3.org/2000/svg">
<path d="M13 17C12.7348 17 12.4804 16.8946 12.2929 16.7071C12.1054 16.5196 12 16.2652 12 16C12 15.7348 12.1054 15.4804 12.2929 15.2929C12.4804 15.1054 12.7348 15 13 15C13.2652 15 13.5196 15.1054 13.7071 15.2929C13.8946 15.4804 14 15.7348 14 16C14 16.2652 13.8946 16.5196 13.7071 16.7071C13.5196 16.8946 13.2652 17 13 17ZM19 7V15H20V17H16V15H17V9H16L17 7H19ZM4 7H8C8.53043 7 9.03914 7.21071 9.41421 7.58579C9.78929 7.96086 10 8.46957 10 9V15C10 15.5304 9.78929 16.0391 9.41421 16.4142C9.03914 16.7893 8.53043 17 8 17H4V15H8V13H5V11H8V9H4V7Z" fill="#8C9BA5"/>
</svg>
