<svg viewBox="0 0 24 24" fill="none" xmlns="http://www.w3.org/2000/svg">
<path d="M19 21V19H15V17H19V15L22 18L19 21ZM10 4C11.0609 4 12.0783 4.42143 12.8284 5.17157C13.5786 5.92172 14 6.93913 14 8C14 9.06087 13.5786 10.0783 12.8284 10.8284C12.0783 11.5786 11.0609 12 10 12C8.93913 12 7.92172 11.5786 7.17157 10.8284C6.42143 10.0783 6 9.06087 6 8C6 6.93913 6.42143 5.92172 7.17157 5.17157C7.92172 4.42143 8.93913 4 10 4ZM10 14C11.15 14 12.25 14.12 13.24 14.34C12.46 15.35 12 16.62 12 18C12 18.7 12.12 19.37 12.34 20H2V18C2 15.79 5.58 14 10 14Z" fill="#8C9BA5"/>
</svg>
