<svg viewBox="0 0 24 24" fill="none" xmlns="http://www.w3.org/2000/svg">
<path d="M12 6C11.2044 6 10.4413 6.31607 9.87868 6.87868C9.31607 7.44129 9 8.20435 9 9C9 9.79565 9.31607 10.5587 9.87868 11.1213C10.4413 11.6839 11.2044 12 12 12C12.7956 12 13.5587 11.6839 14.1213 11.1213C14.6839 10.5587 15 9.79565 15 9C15 8.20435 14.6839 7.44129 14.1213 6.87868C13.5587 6.31607 12.7956 6 12 6ZM6 8.17C5.33696 8.17 4.70107 8.43339 4.23223 8.90223C3.76339 9.37107 3.5 10.007 3.5 10.67C3.5 10.9983 3.56466 11.3234 3.6903 11.6267C3.81594 11.93 4.00009 12.2056 4.23223 12.4378C4.46438 12.6699 4.73998 12.8541 5.04329 12.9797C5.34661 13.1053 5.6717 13.17 6 13.17C6.88 13.17 7.65 12.71 8.09 12.03C7.42 11.18 7 10.15 7 9C7 8.8 7 8.6 7.04 8.4C6.72 8.25 6.37 8.17 6 8.17ZM18 8.17C17.63 8.17 17.28 8.25 16.96 8.4C17 8.6 17 8.8 17 9C17 10.15 16.58 11.18 15.91 12.03C16.35 12.71 17.12 13.17 18 13.17C18.3283 13.17 18.6534 13.1053 18.9567 12.9797C19.26 12.8541 19.5356 12.6699 19.7678 12.4378C19.9999 12.2056 20.1841 11.93 20.3097 11.6267C20.4353 11.3234 20.5 10.9983 20.5 10.67C20.5 10.3417 20.4353 10.0166 20.3097 9.71329C20.1841 9.40998 19.9999 9.13438 19.7678 8.90223C19.5356 8.67009 19.26 8.48594 18.9567 8.3603C18.6534 8.23466 18.3283 8.17 18 8.17ZM12 14C10 14 6 15 6 17V19H18V17C18 15 14 14 12 14ZM4.67 14.97C3 15.26 1 16.04 1 17.33V19H4V17C4 16.22 4.29 15.53 4.67 14.97ZM19.33 14.97C19.71 15.53 20 16.22 20 17V19H23V17.33C23 16.04 21 15.26 19.33 14.97Z" fill="#8C9BA5"/>
</svg>
