<svg viewBox="0 0 24 24" fill="none" xmlns="http://www.w3.org/2000/svg">
<path d="M15 14C12.3 14 7 15.3 7 18V20H23V18C23 15.3 17.7 14 15 14ZM15 12C16.0609 12 17.0783 11.5786 17.8284 10.8284C18.5786 10.0783 19 9.06087 19 8C19 6.93913 18.5786 5.92172 17.8284 5.17157C17.0783 4.42143 16.0609 4 15 4C13.9391 4 12.9217 4.42143 12.1716 5.17157C11.4214 5.92172 11 6.93913 11 8C11 9.06087 11.4214 10.0783 12.1716 10.8284C12.9217 11.5786 13.9391 12 15 12ZM5 15L4.4 14.5C2.4 12.6 1 11.4 1 9.9C1 8.7 2 7.7 3.2 7.7C3.9 7.7 4.6 8 5 8.5C5.4 8 6.1 7.7 6.8 7.7C8 7.7 9 8.6 9 9.9C9 11.4 7.6 12.6 5.6 14.5L5 15Z" fill="#8C9BA5"/>
</svg>
