<svg viewBox="0 0 24 24" fill="none" xmlns="http://www.w3.org/2000/svg">
<path d="M15.5 12C18 12 20 14 20 16.5C20 17.38 19.75 18.21 19.31 18.9L22.39 22L21 23.39L17.88 20.32C17.19 20.75 16.37 21 15.5 21C13 21 11 19 11 16.5C11 14 13 12 15.5 12ZM15.5 14C14.837 14 14.2011 14.2634 13.7322 14.7322C13.2634 15.2011 13 15.837 13 16.5C13 17.163 13.2634 17.7989 13.7322 18.2678C14.2011 18.7366 14.837 19 15.5 19C16.163 19 16.7989 18.7366 17.2678 18.2678C17.7366 17.7989 18 17.163 18 16.5C18 15.837 17.7366 15.2011 17.2678 14.7322C16.7989 14.2634 16.163 14 15.5 14ZM10 4C11.0609 4 12.0783 4.42143 12.8284 5.17157C13.5786 5.92172 14 6.93913 14 8C14 8.91 13.69 9.75 13.18 10.43C12.32 10.75 11.55 11.26 10.91 11.9L10 12C8.93913 12 7.92172 11.5786 7.17157 10.8284C6.42143 10.0783 6 9.06087 6 8C6 6.93913 6.42143 5.92172 7.17157 5.17157C7.92172 4.42143 8.93913 4 10 4ZM2 20V18C2 15.88 5.31 14.14 9.5 14C9.18 14.78 9 15.62 9 16.5C9 17.79 9.38 19 10 20H2Z" fill="#8C9BA5"/>
</svg>
