<svg viewBox="0 0 24 24" fill="none" xmlns="http://www.w3.org/2000/svg">
<path d="M16 17H7V10.5C7 8.00002 9 6.00002 11.5 6.00002C14 6.00002 16 8.00002 16 10.5V17ZM18 16V10.5C18 7.43002 15.86 4.86002 13 4.18002V3.50002C13 3.10219 12.842 2.72066 12.5607 2.43936C12.2794 2.15805 11.8978 2.00002 11.5 2.00002C11.1022 2.00002 10.7206 2.15805 10.4393 2.43936C10.158 2.72066 10 3.10219 10 3.50002V4.18002C7.13 4.86002 5 7.43002 5 10.5V16L3 18V19H20V18L18 16ZM11.5 22C12.0304 22 12.5391 21.7893 12.9142 21.4142C13.2893 21.0392 13.5 20.5305 13.5 20H9.5C9.5 20.5305 9.71071 21.0392 10.0858 21.4142C10.4609 21.7893 10.9696 22 11.5 22Z" fill="#8C9BA5"/>
</svg>
