<svg viewBox="0 0 24 24" fill="none" xmlns="http://www.w3.org/2000/svg">
<path d="M22.11 21.46L2.38999 1.73L1.10999 3L5.82999 7.72C5.28999 8.73 4.99999 9.86 4.99999 11V17L2.99999 19V20H18.11L20.84 22.73L22.11 21.46ZM6.99999 18V11C6.99999 10.39 7.10999 9.79 7.33999 9.23L16.11 18H6.99999ZM9.99999 21H14C14 21.5304 13.7893 22.0391 13.4142 22.4142C13.0391 22.7893 12.5304 23 12 23C11.4696 23 10.9608 22.7893 10.5858 22.4142C10.2107 22.0391 9.99999 21.5304 9.99999 21ZM8.28999 5.09C8.81999 4.75 9.39999 4.5 9.99999 4.29C9.99999 4.19 9.99999 4.1 9.99999 4C9.99999 3.46957 10.2107 2.96086 10.5858 2.58579C10.9608 2.21072 11.4696 2 12 2C12.5304 2 13.0391 2.21072 13.4142 2.58579C13.7893 2.96086 14 3.46957 14 4C14 4.1 14 4.19 14 4.29C16.97 5.17 19 7.9 19 11V15.8L17 13.8V11C17 9.67392 16.4732 8.40215 15.5355 7.46447C14.5978 6.52679 13.3261 6 12 6C11.22 6 10.45 6.2 9.75999 6.56L8.28999 5.09Z" fill="#8C9BA5"/>
</svg>
