<svg viewBox="0 0 24 24" fill="none" xmlns="http://www.w3.org/2000/svg">
<path d="M14 2H6C5.46957 2 4.96086 2.21071 4.58579 2.58579C4.21071 2.96086 4 3.46957 4 4V20C4 20.5304 4.21071 21.0391 4.58579 21.4142C4.96086 21.7893 5.46957 22 6 22H18C18.5304 22 19.0391 21.7893 19.4142 21.4142C19.7893 21.0391 20 20.5304 20 20V8L14 2ZM18 20H6V4H13V9H18V20Z" fill="#8C9BA5"/>
<path d="M9.5 15.5H10.5C10.5 16.04 11.185 16.5 12 16.5C12.815 16.5 13.5 16.04 13.5 15.5C13.5 14.95 12.98 14.75 11.88 14.485C10.82 14.22 9.5 13.89 9.5 12.5C9.5 11.605 10.235 10.845 11.25 10.59V9.5H12.75V10.59C13.765 10.845 14.5 11.605 14.5 12.5H13.5C13.5 11.96 12.815 11.5 12 11.5C11.185 11.5 10.5 11.96 10.5 12.5C10.5 13.05 11.02 13.25 12.12 13.515C13.18 13.78 14.5 14.11 14.5 15.5C14.5 16.395 13.765 17.155 12.75 17.41V18.5H11.25V17.41C10.235 17.155 9.5 16.395 9.5 15.5Z" fill="#8C9BA5"/>
</svg>
