<svg viewBox="0 0 24 24" fill="none" xmlns="http://www.w3.org/2000/svg">
<path d="M9 9.99998H7V12H9V9.99998ZM13 9.99998H11V12H13V9.99998ZM17 9.99998H15V12H17V9.99998ZM19 2.99998H18V0.999977H16V2.99998H8V0.999977H6V2.99998H5C3.89 2.99998 3 3.89998 3 4.99998V19C3 19.5304 3.21071 20.0391 3.58579 20.4142C3.96086 20.7893 4.46957 21 5 21H19C19.5304 21 20.0391 20.7893 20.4142 20.4142C20.7893 20.0391 21 19.5304 21 19V4.99998C21 4.46954 20.7893 3.96084 20.4142 3.58576C20.0391 3.21069 19.5304 2.99998 19 2.99998ZM19 19H5V7.99998H19V19Z" fill="#8C9BA5"/>
</svg>
