<svg viewBox="0 0 24 24" fill="none" xmlns="http://www.w3.org/2000/svg">
<path d="M14.08 21H2C0.91 20.96 0.04 20.09 0 19V5C0.04 3.91 0.91 3.04 2 3H22C23.09 3.04 23.96 3.91 24 5V14.53C23.42 14 22.75 13.61 22 13.34V5H2V19H14.08C14.03 19.33 14 19.66 14 20C14 20.34 14.03 20.68 14.08 21ZM14 17H4V15.75C4 14.09 7.34 13.25 9 13.25C10.66 13.25 14 14.09 14 15.75V17ZM14 11H18V12H14V11ZM9 7C7.63 7 6.5 8.13 6.5 9.5C6.5 10.87 7.63 12 9 12C10.37 12 11.5 10.87 11.5 9.5C11.5 8.13 10.37 7 9 7ZM14 9H20V10H14V9ZM14 7H20V8H14V7Z" fill="#8C9BA5"/>
<path d="M19.1883 15C19.0816 15 18.9913 15.0739 18.9749 15.1724L18.8189 16.256C18.5726 16.3628 18.3345 16.4941 18.1211 16.6419L17.1031 16.2314C17.0128 16.2314 16.9061 16.2314 16.8486 16.3381L16.0277 17.7583C15.9784 17.8487 15.9949 17.9554 16.077 18.021L16.9472 18.6942C16.9307 18.8338 16.9225 18.9651 16.9225 19.1047C16.9225 19.2442 16.9307 19.3756 16.9472 19.5152L16.077 20.1883C16.0031 20.254 15.9784 20.3607 16.0277 20.451L16.8486 21.8712C16.8979 21.978 17.0046 21.978 17.1031 21.978L18.1211 21.5675C18.3345 21.7153 18.5644 21.8548 18.8189 21.9533L18.9749 23.037C18.9913 23.1355 19.0734 23.2094 19.1883 23.2094H20.8302C20.9205 23.2094 21.0108 23.1355 21.0272 23.037L21.1832 21.9533C21.4295 21.8466 21.6511 21.7153 21.8728 21.5675L22.8825 21.978C22.9893 21.978 23.096 21.978 23.1534 21.8712L23.9744 20.451C24.0236 20.3607 23.999 20.254 23.9251 20.1883L23.0467 19.5152C23.0631 19.3756 23.0796 19.2442 23.0796 19.1047C23.0796 18.9651 23.0713 18.8338 23.0467 18.6942L23.9169 18.021C23.9908 17.9554 24.0154 17.8487 23.9662 17.7583L23.1452 16.3381C23.096 16.2314 22.9893 16.2314 22.8825 16.2314L21.8728 16.6419C21.6511 16.4941 21.4295 16.3545 21.175 16.256L21.019 15.1724C21.0108 15.0739 20.9205 15 20.8302 15H19.1883ZM20.0093 17.8733C20.6906 17.8733 21.2407 18.4233 21.2407 19.1047C21.2407 19.7861 20.6906 20.3361 20.0093 20.3361C19.3197 20.3361 18.7778 19.7861 18.7778 19.1047C18.7778 18.4233 19.3279 17.8733 20.0093 17.8733Z" fill="#8C9BA5"/>
</svg>
