<svg viewBox="0 0 24 24" fill="none" xmlns="http://www.w3.org/2000/svg">
<path d="M11.9999 2.00003C10.6867 2.00003 9.38636 2.25869 8.1731 2.76124C6.95985 3.26378 5.85746 4.00038 4.92887 4.92896C3.05351 6.80433 1.99994 9.34787 1.99994 12C1.99994 14.6522 3.05351 17.1957 4.92887 19.0711C5.85746 19.9997 6.95985 20.7363 8.1731 21.2388C9.38636 21.7414 10.6867 22 11.9999 22C14.6521 22 17.1956 20.9465 19.071 19.0711C20.9464 17.1957 21.9999 14.6522 21.9999 12C21.9999 10.6868 21.7413 9.38645 21.2387 8.1732C20.7362 6.95994 19.9996 5.85755 19.071 4.92896C18.1424 4.00038 17.04 3.26378 15.8268 2.76124C14.6135 2.25869 13.3132 2.00003 11.9999 2.00003ZM16.1999 16.2L10.9999 13V7.00003H12.4999V12.2L16.9999 14.9L16.1999 16.2Z" fill="#8C9BA5"/>
</svg>
