<svg viewBox="0 0 24 24" fill="none" xmlns="http://www.w3.org/2000/svg">
<path d="M12.0004 2C6.4704 2 2.0004 6.5 2.0004 12C2.0004 14.6522 3.05397 17.1957 4.92933 19.0711C5.85792 19.9997 6.96031 20.7363 8.17356 21.2388C9.38682 21.7413 10.6872 22 12.0004 22C14.2504 22 16.3304 21.24 18.0004 20V17.28C16.5304 18.94 14.3904 20 12.0004 20C9.87867 20 7.84383 19.1571 6.34354 17.6569C4.84325 16.1566 4.0004 14.1217 4.0004 12C4.0004 9.87827 4.84325 7.84344 6.34354 6.34315C7.84383 4.84286 9.87867 4 12.0004 4C15.3604 4 18.2304 6.07 19.4104 9H21.5404C20.2704 4.94 16.5004 2 12.0004 2ZM11.0004 7V13L16.2504 16.15L17.0004 14.92L12.5004 12.25V7H11.0004ZM20.0004 11V18H22.0004V11H20.0004ZM20.0004 20V22H22.0004V20H20.0004Z" fill="#8C9BA5"/>
</svg>
