<svg viewBox="0 0 24 24" fill="none" xmlns="http://www.w3.org/2000/svg">
<path d="M0.0625 0.0358887H23.9862V23.9595H0.0625V0.0358887Z" fill="url(#paint0_linear)"/>
<path fill-rule="evenodd" clip-rule="evenodd" d="M3.70386 12.0046C3.70386 16.6037 7.43217 20.332 12.0312 20.332C16.6303 20.332 20.3586 16.6037 20.3586 12.0046C20.3586 7.40554 16.6303 3.67725 12.0312 3.67725C7.43217 3.67725 3.70386 7.40554 3.70386 12.0046ZM9.9031 9.32134C9.59649 9.32134 9.34797 9.56986 9.34797 9.87648V14.1327C9.34797 14.4393 9.59649 14.6879 9.9031 14.6879H14.1593C14.4659 14.6879 14.7144 14.4393 14.7144 14.1327V9.87648C14.7144 9.56986 14.4659 9.32134 14.1593 9.32134H9.9031Z" fill="white"/>
<defs>
<linearGradient id="paint0_linear" x1="12.0243" y1="0.0358887" x2="12.0243" y2="23.9595" gradientUnits="userSpaceOnUse">
<stop stop-color="#2E66F8"/>
<stop offset="1" stop-color="#124ADB"/>
</linearGradient>
</defs>
</svg>
