<svg viewBox="0 0 24 24" fill="none" xmlns="http://www.w3.org/2000/svg">
<path d="M6.99988 15H8.99988C8.99988 16.08 10.3699 17 11.9999 17C13.6299 17 14.9999 16.08 14.9999 15C14.9999 13.9 13.9599 13.5 11.7599 12.97C9.63988 12.44 6.99988 11.78 6.99988 9.00002C6.99988 7.21002 8.46988 5.69002 10.4999 5.18002V3.00002H13.4999V5.18002C15.5299 5.69002 16.9999 7.21002 16.9999 9.00002H14.9999C14.9999 7.92002 13.6299 7.00002 11.9999 7.00002C10.3699 7.00002 8.99988 7.92002 8.99988 9.00002C8.99988 10.1 10.0399 10.5 12.2399 11.03C14.3599 11.56 16.9999 12.22 16.9999 15C16.9999 16.79 15.5299 18.31 13.4999 18.82V21H10.4999V18.82C8.46988 18.31 6.99988 16.79 6.99988 15Z" fill="#8C9BA5"/>
</svg>
