<svg viewBox="0 0 24 24" fill="none" xmlns="http://www.w3.org/2000/svg">
<path d="M20 17C20.5733 17 21.0567 17.2 21.45 17.6C21.8433 18 22.0367 18.4667 22.03 19L14 22L7.00001 20V11H8.95001L16.22 13.69C16.74 13.8967 17 14.27 17 14.81C17 15.1233 16.8867 15.3967 16.66 15.63C16.4333 15.8633 16.1467 15.9867 15.8 16H13L11.25 15.33L10.92 16.27L13 17H20ZM0.984009 11H5.00001V22H0.984009V11Z" fill="#8C9BA5"/>
<path d="M15 10H16.3333C16.3333 10.72 17.2467 11.3333 18.3333 11.3333C19.42 11.3333 20.3333 10.72 20.3333 10C20.3333 9.26667 19.64 9 18.1733 8.64667C16.76 8.29333 15 7.85333 15 6C15 4.80667 15.98 3.79333 17.3333 3.45333V2H19.3333V3.45333C20.6867 3.79333 21.6667 4.80667 21.6667 6H20.3333C20.3333 5.28 19.42 4.66667 18.3333 4.66667C17.2467 4.66667 16.3333 5.28 16.3333 6C16.3333 6.73333 17.0267 7 18.4933 7.35333C19.9067 7.70667 21.6667 8.14667 21.6667 10C21.6667 11.1933 20.6867 12.2067 19.3333 12.5467V14H17.3333V12.5467C15.98 12.2067 15 11.1933 15 10Z" fill="#8C9BA5"/>
</svg>
