<svg viewBox="0 0 24 24" fill="none" xmlns="http://www.w3.org/2000/svg">
<path fill-rule="evenodd" clip-rule="evenodd" d="M14 1V4H6C4.34315 4 3 5.34315 3 7V9.17157C2.5821 9.31933 2.19808 9.55927 1.87868 9.87868C1.31607 10.4413 1 11.2044 1 12C1 12.7956 1.31607 13.5587 1.87868 14.1213C2.19808 14.4407 2.5821 14.6807 3 14.8284V17C3 18.6569 4.34315 20 6 20H14V23L18 19L14 15V18H6C5.44772 18 5 17.5523 5 17V14.8308C5.85441 14.531 6.52982 13.8566 6.83 13H19V16L23 12L19 8V11H6.83C6.52982 10.1434 5.85441 9.46903 5 9.16923V7C5 6.44772 5.44772 6 6 6H14V9L18 5L14 1ZM4 13C4.55228 13 5 12.5523 5 12C5 11.4477 4.55228 11 4 11C3.44772 11 3 11.4477 3 12C3 12.5523 3.44772 13 4 13Z" fill="#8C9BA5"/>
</svg>
