<svg viewBox="0 0 24 24" fill="none" xmlns="http://www.w3.org/2000/svg">
<path d="M21.71 8.71001C22.96 7.46001 22.39 6.00001 21.71 5.29001L18.71 2.29001C17.45 1.04001 16 1.61001 15.29 2.29001L13.59 4.00001H11C9.10001 4.00001 8.00001 5.00001 7.44001 6.15001L3.00001 10.59V14.59L2.29001 15.29C1.04001 16.55 1.61001 18 2.29001 18.71L5.29001 21.71C5.83001 22.25 6.41001 22.45 6.96001 22.45C7.67001 22.45 8.32001 22.1 8.71001 21.71L11.41 19H15C16.7 19 17.56 17.94 17.87 16.9C19 16.6 19.62 15.74 19.87 14.9C21.42 14.5 22 13.03 22 12V9.00001H21.41L21.71 8.71001ZM20 12C20 12.45 19.81 13 19 13H18V14C18 14.45 17.81 15 17 15H16V16C16 16.45 15.81 17 15 17H10.59L7.31001 20.28C7.00001 20.57 6.82001 20.4 6.71001 20.29L3.72001 17.31C3.43001 17 3.60001 16.82 3.71001 16.71L5.00001 15.41V11.41L7.00001 9.41001V11C7.00001 12.21 7.80001 14 10 14C12.2 14 13 12.21 13 11H20V12ZM20.29 7.29001L18.59 9.00001H11V11C11 11.45 10.81 12 10 12C9.19001 12 9.00001 11.45 9.00001 11V8.00001C9.00001 7.54001 9.17001 6.00001 11 6.00001H14.41L16.69 3.72001C17 3.43001 17.18 3.60001 17.29 3.71001L20.28 6.69001C20.57 7.00001 20.4 7.18001 20.29 7.29001Z" fill="#8C9BA5"/>
</svg>
