<svg viewBox="0 0 24 24" fill="none" xmlns="http://www.w3.org/2000/svg">
<g clip-path="url(#clip0)">
<path d="M15.532 7.04876L17.6533 9.17008L22.3131 9.16301C22.4451 9.16247 22.576 9.18807 22.698 9.23834C22.8201 9.28861 22.931 9.36255 23.0243 9.45589C23.1177 9.54924 23.1916 9.66015 23.2419 9.78221C23.2922 9.90428 23.3178 10.0351 23.3172 10.1671L23.3102 13.8228C23.3094 14.087 23.2041 14.3402 23.0173 14.527C22.8305 14.7138 22.5773 14.8191 22.3131 14.8199L19.0675 14.8269L13.4107 9.17008L11.9964 10.5843C11.8089 10.7718 11.5546 10.8772 11.2893 10.8772C11.0241 10.8772 10.7698 10.7718 10.5822 10.5843C10.3947 10.3968 10.2893 10.1424 10.2893 9.87719C10.2893 9.61197 10.3947 9.35762 10.5822 9.17008L12.7036 7.04876C13.0786 6.67369 13.5873 6.46297 14.1178 6.46297C14.6482 6.46297 15.1569 6.67369 15.532 7.04876ZM7.75381 6.34165L4.92538 9.17008L1.68683 9.17008C1.42264 9.17087 1.16951 9.27616 0.982697 9.46297C0.79589 9.64978 0.690595 9.90292 0.689809 10.1671L0.682737 13.8228C0.682196 13.9549 0.707798 14.0857 0.758067 14.2077C0.808336 14.3298 0.882277 14.4407 0.975623 14.534C1.06897 14.6274 1.17987 14.7013 1.30194 14.7516C1.42401 14.8019 1.55482 14.8275 1.68683 14.8269L7.75381 14.8269L10.5822 17.6554C10.7698 17.8429 11.0241 17.9483 11.2893 17.9483C11.5546 17.9483 11.8089 17.8429 11.9964 17.6554L12.7036 16.9483L13.4107 17.6554C13.5982 17.8429 13.8526 17.9483 14.1178 17.9483C14.383 17.9483 14.6373 17.8429 14.8249 17.6554L15.532 16.9483L16.2391 17.6554C16.4266 17.8429 16.681 17.9483 16.9462 17.9483C17.2114 17.9483 17.4658 17.8429 17.6533 17.6554L18.3604 16.9483L13.4107 11.9985L12.7036 12.7056C12.3285 13.0807 11.8198 13.2914 11.2893 13.2914C10.7589 13.2914 10.2502 13.0807 9.87513 12.7056L8.46091 11.2914C8.08584 10.9163 7.87513 10.4076 7.87513 9.87719C7.87513 9.34675 8.08584 8.83805 8.46091 8.46297L10.5822 6.34165L7.75381 6.34165Z" fill="#8C9BA5"/>
</g>
<defs>
<clipPath id="clip0">
<rect width="24" height="24" fill="white"/>
</clipPath>
</defs>
</svg>
