<svg viewBox="0 0 24 24" fill="none" xmlns="http://www.w3.org/2000/svg">
<path d="M6.5 3C8.46 3 10.13 4.25 10.74 6H22V9H18V12H15V9H10.74C10.13 10.75 8.46 12 6.5 12C4 12 2 10 2 7.5C2 5 4 3 6.5 3ZM6.5 6C6.10218 6 5.72064 6.15804 5.43934 6.43934C5.15804 6.72064 5 7.10218 5 7.5C5 7.89782 5.15804 8.27936 5.43934 8.56066C5.72064 8.84196 6.10218 9 6.5 9C6.89782 9 7.27936 8.84196 7.56066 8.56066C7.84196 8.27936 8 7.89782 8 7.5C8 7.10218 7.84196 6.72064 7.56066 6.43934C7.27936 6.15804 6.89782 6 6.5 6ZM8 17H11V14H13V17H16V19H13V22H11V19H8V17Z" fill="#8C9BA5"/>
</svg>
