<svg viewBox="0 0 24 24" fill="none" xmlns="http://www.w3.org/2000/svg">
<g clip-path="url(#clip0)">
<path d="M21.7164 2.62857L13.4608 8.73703L14.9957 5.1372L21.7164 2.62857Z" fill="#E17726" stroke="#E17726" stroke-width="0.25" stroke-linecap="round" stroke-linejoin="round"/>
<path d="M2.67389 2.62857L10.856 8.79423L9.39457 5.1372L2.67389 2.62857ZM18.7446 16.7928L16.5477 20.1481L21.2513 21.443L22.5983 16.8657L18.7446 16.7928ZM1.80017 16.8657L3.13903 21.443L7.83446 20.1481L5.6464 16.7922L1.80017 16.8657Z" fill="#E27625" stroke="#E27625" stroke-width="0.25" stroke-linecap="round" stroke-linejoin="round"/>
<path d="M7.58112 11.1237L6.27557 13.0943L10.9301 13.3061L10.7749 8.29639L7.58112 11.1237ZM16.8085 11.1237L13.567 8.24045L13.4608 13.3067L18.1153 13.0949L16.8085 11.1237ZM7.83443 20.1481L10.6517 18.7879L8.22666 16.8984L7.83443 20.1481ZM13.7386 18.7879L16.5477 20.1481L16.1643 16.8984L13.7386 18.7879Z" fill="#E27625" stroke="#E27625" stroke-width="0.25" stroke-linecap="round" stroke-linejoin="round"/>
<path d="M16.5477 20.1481L13.738 18.7879L13.9674 20.6126L13.9422 21.3858L16.5477 20.1481ZM7.83441 20.1481L10.4474 21.3864L10.431 20.6126L10.6517 18.7879L7.83441 20.1481Z" fill="#D5BFB2" stroke="#D5BFB2" stroke-width="0.25" stroke-linecap="round" stroke-linejoin="round"/>
<path d="M10.4964 15.6928L8.16125 15.0089L9.81063 14.2515L10.4964 15.6928ZM13.8938 15.6928L14.579 14.2515L16.2371 15.0089L13.8938 15.6928Z" fill="#233447" stroke="#233447" stroke-width="0.25" stroke-linecap="round" stroke-linejoin="round"/>
<path d="M7.83442 20.1481L8.24299 16.7928L5.64636 16.8657L7.83442 20.1481ZM16.1473 16.7928L16.5477 20.1481L18.7439 16.8657L16.1473 16.7928ZM18.116 13.0943L13.4608 13.3068L13.8939 15.6928L14.579 14.2515L16.2372 15.0089L18.116 13.0943ZM8.16128 15.0089L9.81065 14.2515L10.4964 15.6928L10.9295 13.3068L6.27493 13.0949L8.16128 15.0089Z" fill="#CC6228" stroke="#CC6228" stroke-width="0.25" stroke-linecap="round" stroke-linejoin="round"/>
<path d="M6.2749 13.0943L8.22662 16.8984L8.16125 15.0089L6.2749 13.0943ZM16.2371 15.0089L16.1636 16.8984L18.1153 13.0949L16.2371 15.0089ZM10.9295 13.3068L10.4964 15.6928L11.0432 18.5113L11.1664 14.7965L10.9295 13.3068ZM13.4607 13.3068L13.2319 14.7889L13.3463 18.5113L13.8932 15.6928L13.4607 13.3068Z" fill="#E27525" stroke="#E27525" stroke-width="0.25" stroke-linecap="round" stroke-linejoin="round"/>
<path d="M13.8938 15.6928L13.347 18.5113L13.7386 18.7879L16.1636 16.8984L16.2371 15.0089L13.8938 15.6928ZM8.16125 15.0089L8.22663 16.8984L10.6517 18.7879L11.0439 18.5113L10.497 15.6928L8.16125 15.0089Z" fill="#F5841F" stroke="#F5841F" stroke-width="0.25" stroke-linecap="round" stroke-linejoin="round"/>
<path d="M13.9422 21.3864L13.9674 20.6126L13.7549 20.4335H10.6353L10.431 20.6126L10.4474 21.3858L7.83441 20.1481L8.74898 20.8974L10.6033 22.1765H13.7794L15.6413 20.8974L16.5477 20.1481L13.9422 21.3864Z" fill="#C0AC9D" stroke="#C0AC9D" stroke-width="0.25" stroke-linecap="round" stroke-linejoin="round"/>
<path d="M13.7386 18.7879L13.3464 18.5113H11.0445L10.6523 18.7879L10.4323 20.6126L10.636 20.4335H13.7556L13.968 20.6126L13.7386 18.7879Z" fill="#161616" stroke="#161616" stroke-width="0.25" stroke-linecap="round" stroke-linejoin="round"/>
<path d="M22.0678 9.13617L22.7611 5.76514L21.7164 2.62857L13.7386 8.53337L16.8092 11.1231L21.1451 12.3865L22.1005 11.2702L21.6837 10.9685L22.3456 10.3663L21.839 9.97531L22.5003 9.46994L22.0678 9.13617ZM1.62854 5.76451L2.33065 9.13617L1.88185 9.47057L2.55128 9.97531L2.04528 10.3663L2.70654 10.9691L2.2898 11.2708L3.24523 12.3859L7.58174 11.1237L10.6517 8.534L2.67385 2.62857L1.62854 5.76451Z" fill="#763E1A" stroke="#763E1A" stroke-width="0.25" stroke-linecap="round" stroke-linejoin="round"/>
<path d="M21.145 12.3859L16.8092 11.1237L18.1153 13.0949L16.1636 16.8984L18.7445 16.8657H22.5983L21.145 12.3859ZM7.5811 11.1237L3.24521 12.3859L1.7995 16.8657H5.64636L8.22664 16.8984L6.27493 13.0949L7.5811 11.1237ZM13.4608 13.3067L13.7386 8.53338L14.9957 5.13721H9.39453L10.6517 8.53338L10.9295 13.3067L11.0357 14.8053L11.0439 18.5113H13.3464L13.3545 14.8053L13.4608 13.3067Z" fill="#F5841F" stroke="#F5841F" stroke-width="0.25" stroke-linecap="round" stroke-linejoin="round"/>
</g>
<defs>
<clipPath id="clip0">
<rect width="22" height="20.7429" fill="white" transform="translate(1 2)"/>
</clipPath>
</defs>
</svg>
