<svg xmlns="http://www.w3.org/2000/svg" viewBox="0 0 187.5 17.7"><defs><style>.cls-1{fill:#1348e4;}</style></defs><title>New PM</title><g id="Layer_2" data-name="Layer 2"><g id="Layer_1-2" data-name="Layer 1"><path id="Shape" class="cls-1" d="M3.8,8.9h3c1.9,0,3-1.1,3-2.6,0-1.7-1.2-2.6-3.1-2.6H0V.3H7c4.1,0,6.6,2.4,6.6,5.9,0,4-3.1,6-6.9,6H3.8v5.1H0V9Z"/><path id="Shape-2" data-name="Shape" class="cls-1" d="M21.8,8.9A8.84,8.84,0,0,1,30.9,0,8.76,8.76,0,0,1,40,8.8a8.84,8.84,0,0,1-9.1,8.9A8.76,8.76,0,0,1,21.8,8.9ZM36,8.9a5.21,5.21,0,0,0-5.2-5.4,5.1,5.1,0,0,0-5.1,5.3,5.27,5.27,0,0,0,5.2,5.4A5,5,0,0,0,36,8.9Z"/><polygon id="Shape-3" data-name="Shape" class="cls-1" points="50.7 0.3 54.5 0.3 54.5 14 63.1 14 63.1 17.4 50.7 17.4 50.7 0.3"/><polygon id="Shape-4" data-name="Shape" class="cls-1" points="76.8 10.7 70.2 0.3 74.6 0.3 78.7 7.2 82.9 0.3 87.2 0.3 80.6 10.6 80.6 17.4 76.8 17.4 76.8 10.7"/><polygon id="Shape-5" data-name="Shape" class="cls-1" points="96.9 0.3 101 0.3 105.5 7.6 110 0.3 114.1 0.3 114.1 17.5 110.4 17.5 110.4 6.2 105.6 13.5 105.5 13.5 100.7 6.2 100.7 17.3 97 17.3 97 0.3 96.9 0.3"/><polygon id="Shape-6" data-name="Shape" class="cls-1" points="135.2 10.3 132.9 4.7 130.6 10.3 129.3 13.6 127.7 17.4 123.9 17.4 131.3 0.1 134.8 0.1 142.2 17.4 138.3 17.4 136.7 13.6 135.2 10.3"/><polygon id="Shape-7" data-name="Shape" class="cls-1" points="153.9 3.8 148.7 3.8 148.7 0.3 162.9 0.3 162.9 3.8 157.7 3.8 157.7 17.5 153.9 17.5 153.9 3.8"/><polygon id="Shape-8" data-name="Shape" class="cls-1" points="172.9 0.3 176.7 0.3 176.7 7.1 183.7 7.1 183.7 0.3 187.5 0.3 187.5 17.5 183.7 17.5 183.7 10.6 176.7 10.6 176.7 17.5 172.9 17.5 172.9 0.3"/></g></g></svg>