<svg viewBox="0 0 24 24" fill="none" xmlns="http://www.w3.org/2000/svg">
<path d="M13 2.03C17.73 2.5 21.5 6.25 21.95 11C22.5 16.5 18.5 21.38 13 21.93V19.93C16.64 19.5 19.5 16.61 19.96 12.97C20.5 8.58 17.39 4.59 13 4.05V2.05V2.03ZM11 2.06V4.06C9.56999 4.26 8.21999 4.84 7.09999 5.74L5.66999 4.26C7.18999 3 9.04999 2.25 11 2.06ZM4.25999 5.67L5.68999 7.1C4.79999 8.23 4.23999 9.58 4.04999 11H2.04999C2.24999 9.04 2.99999 7.19 4.25999 5.67ZM2.05999 13H4.05999C4.23999 14.42 4.80999 15.77 5.68999 16.9L4.26999 18.33C3.02999 16.81 2.25999 14.96 2.05999 13ZM7.09999 18.37C8.22999 19.25 9.57999 19.82 11 20V22C9.03999 21.79 7.17999 21 5.66999 19.74L7.09999 18.37ZM12 7.5L7.49999 12H11V16H13V12H16.5L12 7.5Z" fill="#8C9BA5"/>
</svg>
