<svg viewBox="0 0 24 24" fill="none" xmlns="http://www.w3.org/2000/svg">
<path d="M2.20001 11.2C2.00001 13.6 2.70001 15.6 4.20001 17.4C5.70001 19.2 7.70001 20 10.1 20H20.1C20.6 20 21.1 19.8 21.5 19.4C21.9 19 22.1 18.5 22.1 18V17.2C22.1 16.6 22 15.9 21.9 15H13.7C12.7 15 11.9 14.6 11.2 13.9C10.5 13.2 10.1 12.3 10.1 11.4C10.1 9.8 10.8 8.7 12.3 8.1L17.1 6C15.4 4.8 13.4 4.1 11.1 4C8.90001 3.8 6.90001 4.5 5.10001 5.9C3.30001 7.3 2.40001 9 2.20001 11.2ZM12.1 11.4C12.1 11.8 12.3 12.2 12.6 12.5C12.9 12.8 13.3 13 13.7 13H21.5C20.9 10.8 20 9 18.7 7.6L13.1 9.9C12.4 10.1 12.1 10.6 12.1 11.4Z" fill="#8C9BA5"/>
</svg>
