<svg viewBox="0 0 24 24" fill="none" xmlns="http://www.w3.org/2000/svg">
<path d="M22 12.14C22 10.92 21 9.95999 19.81 9.95999C19.22 9.95999 18.68 10.19 18.29 10.57C16.79 9.49999 14.72 8.78999 12.43 8.69999L13.43 3.99999L16.7 4.70999C16.73 5.52999 17.41 6.18999 18.25 6.18999C19.11 6.18999 19.81 5.49999 19.81 4.62999C19.81 3.76999 19.11 3.07999 18.25 3.07999C17.65 3.07999 17.11 3.42999 16.86 3.94999L13.22 3.17999C13.11 3.15999 13 3.17999 12.93 3.23999C12.84 3.28999 12.79 3.37999 12.77 3.49999L11.66 8.71999C9.33 8.78999 7.23 9.49999 5.71 10.58C5.32 10.21 4.78 9.99999 4.19 9.99999C2.97 9.99999 2 10.96 2 12.16C2 13.06 2.54 13.81 3.29 14.15C3.25 14.37 3.24 14.58 3.24 14.81C3.24 18.18 7.16 20.93 12 20.93C16.84 20.93 20.76 18.2 20.76 14.81C20.76 14.6 20.75 14.37 20.71 14.15C21.46 13.81 22 13.04 22 12.14ZM7 13.7C7 12.84 7.68 12.14 8.54 12.14C9.4 12.14 10.1 12.84 10.1 13.7C10.1 14.1137 9.93564 14.5105 9.64309 14.8031C9.35053 15.0956 8.95374 15.26 8.54 15.26C7.68 15.28 7 14.56 7 13.7ZM15.71 17.84C14.63 18.92 12.59 19 12 19C11.39 19 9.35 18.9 8.29 17.84C8.13 17.68 8.13 17.43 8.29 17.27C8.45 17.11 8.7 17.11 8.86 17.27C9.54 17.95 11 18.18 12 18.18C13 18.18 14.47 17.95 15.14 17.27C15.3 17.11 15.55 17.11 15.71 17.27C15.85 17.43 15.85 17.68 15.71 17.84ZM15.42 15.28C14.56 15.28 13.86 14.58 13.86 13.72C13.86 13.3062 14.0244 12.9095 14.3169 12.6169C14.6095 12.3243 15.0063 12.16 15.42 12.16C16.28 12.16 17 12.86 17 13.72C17 14.56 16.28 15.28 15.42 15.28Z" fill="#8C9BA5"/>
</svg>
