<svg viewBox="0 0 24 24" fill="none" xmlns="http://www.w3.org/2000/svg">
<path d="M20.39 19.37L16.38 18L15 22L11.92 16L9 22L7.62 18L3.61 19.37L6.53 13.37C5.57 12.17 5 10.65 5 9C5 7.14348 5.7375 5.36301 7.05025 4.05025C8.36301 2.7375 10.1435 2 12 2C13.8565 2 15.637 2.7375 16.9497 4.05025C18.2625 5.36301 19 7.14348 19 9C19 10.65 18.43 12.17 17.47 13.37L20.39 19.37ZM7 9L9.69 10.34L9.5 13.34L12 11.68L14.5 13.33L14.33 10.34L17 9L14.32 7.65L14.5 4.67L12 6.31L9.5 4.65L9.67 7.66L7 9Z" fill="#8C9BA5"/>
</svg>
