<svg viewBox="0 0 24 24" fill="none" xmlns="http://www.w3.org/2000/svg">
<path d="M12.2656 0C8.97593 0 6.31369 2.66224 6.31369 5.95187V8.18257C5.15851 8.3917 4 8.67054 4 9.03236V20.6739C4 20.6739 4 20.9958 4.36183 21.1485C5.67303 21.6797 10.8315 23.5054 12.0166 23.9237C12.1693 23.9801 12.2124 23.9801 12.2523 23.9801C12.3087 23.9801 12.3353 23.9801 12.488 23.9237C13.673 23.5054 18.8448 21.6797 20.156 21.1485C20.4913 21.0091 20.5046 20.6871 20.5046 20.6871V9.03236C20.5046 8.67054 19.3627 8.37842 18.2041 8.18257V5.95187C18.2207 2.66224 15.5419 0 12.2656 0ZM12.2656 2.84481C14.2041 2.84481 15.3759 4.0166 15.3759 5.95519V7.89378C13.2017 7.74108 11.3461 7.74108 9.15851 7.89378V5.95519C9.15851 4.01328 10.3303 2.84481 12.2656 2.84481ZM12.2523 10.7485C14.9577 10.7485 17.2282 10.9577 17.2282 11.3328V18.5958C17.2282 18.7087 17.2149 18.722 17.1154 18.7618C17.0191 18.805 12.5012 20.4349 12.5012 20.4349C12.5012 20.4349 12.3187 20.4913 12.2656 20.4913C12.2091 20.4913 12.0299 20.4216 12.0299 20.4216C12.0299 20.4216 7.51203 18.7917 7.41577 18.7485C7.3195 18.7054 7.3029 18.6921 7.3029 18.5826V11.3195C7.27635 10.9444 9.54689 10.7485 12.2523 10.7485Z" fill="black"/>
</svg>
