<svg viewBox="0 0 24 24" fill="none" xmlns="http://www.w3.org/2000/svg">
<path d="M15 7V11H16V13H13V5H15L12 1L9 5H11V13H8V10.93C8.7 10.56 9.2 9.85 9.2 9C9.2 7.78 8.21 6.8 7 6.8C5.78 6.8 4.8 7.78 4.8 9C4.8 9.85 5.3 10.56 6 10.93V13C6 13.5304 6.21072 14.0391 6.58579 14.4142C6.96086 14.7893 7.46957 15 8 15H11V18.05C10.29 18.41 9.8 19.15 9.8 20C9.8 20.5835 10.0318 21.1431 10.4444 21.5556C10.8569 21.9682 11.4165 22.2 12 22.2C12.5835 22.2 13.1431 21.9682 13.5556 21.5556C13.9682 21.1431 14.2 20.5835 14.2 20C14.2 19.15 13.71 18.41 13 18.05V15H16C16.5304 15 17.0391 14.7893 17.4142 14.4142C17.7893 14.0391 18 13.5304 18 13V11H19V7H15Z" fill="#8C9BA5"/>
</svg>
